# xmcd
#
# Track frame offsets: 
#        150
#        15305
#        36450
#        55233
#        86845
#        108618
#        123093
#        138675
#        155598
#        171863
#        186900
#        203203
#        220033
#        236918
#        252088
#        272273
#        284570
#
# Disc length: 4094 seconds
#
# Revision: 5
# Processed by: cddbd v1.5.2PL0 Copyright (c) Steve Scherf et al.
# Submitted via: ExactAudioCopy v1.3
#
DISCID=fb0ffc11
DTITLE=Various Artist - ''departure'' Samurai Champloo Music Record
DYEAR=2004
DGENRE=Hip-Hop
TTITLE0=Nujabes feat.Shing02 - Battlecry
TTITLE1=Nujabes - The Space Between Two World
TTITLE2=Nujabes - Aruarian Dance
TTITLE3=Nujabes - Kujaku
TTITLE4=Nujabes - Mystline
TTITLE5=Nujabes - 1st. Samurai
TTITLE6=Fat Jon - Ole
TTITLE7=Fat Jon - 624 Part2
TTITLE8=Fat Jon - Genome
TTITLE9=Fat Jon - No Way Back
TTITLE10=Fat Jon - Funkin
TTITLE11=Fat Jon - Stay
TTITLE12=Fat Jon - Chambers
TTITLE13=Fat Jon - Ask
TTITLE14=Fat Jon - How You Feel
TTITLE15=Fat Jon - 624 Part1
TTITLE16=MINMI - ???????
EXTD=YEAR: 2004
EXTT0=
EXTT1=
EXTT2=
EXTT3=
EXTT4=
EXTT5=
EXTT6=
EXTT7=
EXTT8=
EXTT9=
EXTT10=
EXTT11=
EXTT12=
EXTT13=
EXTT14=
EXTT15=
EXTT16=
PLAYORDER=
